<?xml version="1.0" encoding="utf-8"?>
<!-- Generator: Adobe Illustrator 27.9.0, SVG Export Plug-In . SVG Version: 6.00 Build 0)  -->
<svg version="1.1" id="Layer_1" xmlns="http://www.w3.org/2000/svg" xmlns:xlink="http://www.w3.org/1999/xlink" x="0px" y="0px"
	 viewBox="0 0 1545 146" style="enable-background:new 0 0 1545 146;" xml:space="preserve">
<style type="text/css">
	.st0{fill:#93AF1C;stroke:#93AF1C;stroke-miterlimit:10;}
	.st1{fill:#93AF1C;}
</style>
<path class="st0" d="M0,113.32c199.59,32.72,374.26-1.26,500.83-6.27c250.78-9.91,354.51-42.21,576-42.17
	c191.13,0.04,351.11,24.14,468.17,48.44c0,10.8,0,32.68,0,32.68H0V113.32z"/>
<path class="st0" d="M1685.17,331.78"/>
<g>
	<path class="st1" d="M28.48,123.6c3.89-10.99,6.38-22.59,5.82-34.25c-0.15-5.64-1.09-11.16-2.84-16.47c0,0-2.1-5.09-2.1-5.09
		c-3.29-6.72-6.02-13.33-9.54-20.04c-1.76-3.44-3.67-6.92-5.46-10.78l0.76-0.8c11.76,4.97,21.09,15.71,24.53,28.04
		C42,74.52,42.81,85.39,40.7,95.78c-1.86,10.05-5.95,19.77-11.23,28.3C29.47,124.08,28.48,123.6,28.48,123.6L28.48,123.6z"/>
</g>
<g>
	<path class="st1" d="M74.11,133.27c4.63-9.96,7.42-21.03,5.67-31.99c-0.23-1-0.63-2.82-0.85-3.81c-0.93-3-2.23-5.88-3.94-8.48
		c-3.14-4.95-6.33-10.32-9.62-15.25c-1.75-2.67-3.62-5.37-5.38-8.46c0,0,0.6-0.8,0.6-0.8c6.98,1.67,12.95,5.77,17.73,11.01
		c4.96,5.34,7.17,12.72,8.25,19.78c0.28,1.48,0.35,3.83,0.5,5.35c0.09,5.24-0.74,10.57-2.41,15.53c-2.18,6.44-5.54,12.36-9.7,17.65
		C74.96,133.79,74.11,133.27,74.11,133.27L74.11,133.27z"/>
</g>
<g>
	<path class="st1" d="M127.02,133.77c-8.63-13.85-13.73-30.64-12.2-47.15c0.12-1.85,0.58-4.5,0.75-6.37c0.4-2.1,0.83-4.22,1.28-6.35
		c3.44-12.34,12.77-23.07,24.53-28.04c0,0,0.76,0.8,0.76,0.8c-1.79,3.86-3.7,7.33-5.46,10.78c-2.7,5.08-4.76,10.07-7.25,15.09
		c-0.66,1.68-1.47,3.31-2.29,4.95l-2.1,5.09c-0.53,1.76-1.1,3.53-1.51,5.34c-2.33,11.2-1.66,22.93,1.09,34.04
		c0.93,3.81,2.05,7.6,3.4,11.35C128.01,133.29,127.02,133.77,127.02,133.77L127.02,133.77z"/>
</g>
<path class="st1" d="M234.67,133.55c-1.58-0.64-3.21-1.18-4.72-1.95c-8.1-4.13-15.66-9.06-22.25-15.39
	c-8.94-8.59-15.86-18.54-20.55-30.05c-8.21-20.19-8.73-40.64-1.81-61.22c1.77-5.27,4.46-10.26,6.95-15.26
	c1.45-2.91,1.82-2.87,4.75-1.85c8.1,2.8,15.6,6.75,22.54,11.78c14.12,10.24,24.36,23.54,30.43,39.85
	c7.02,18.87,7.52,38.02,1.27,57.23c-1.19,3.65-2.72,7.19-4.13,10.77c-0.26,0.65-0.71,1.22-1.4,1.86
	c-10.21-25.63-20.62-51.08-34.15-75.13c5.56,26.97,14.24,53,23.59,78.84C235.02,133.21,234.85,133.38,234.67,133.55z"/>
<path class="st1" d="M1459.05,102.94c-0.67-1.19-1.42-2.34-1.98-3.58c-3.01-6.65-5.29-13.52-6.25-20.78
	c-1.31-9.86-0.67-19.56,2.15-29.13c4.96-16.77,14.87-29.85,29.5-39.29c3.75-2.42,7.93-4.21,12-6.09c2.37-1.1,2.58-0.89,3.91,1.22
	c3.68,5.81,6.41,12.04,8.24,18.66c3.73,13.49,3.5,26.95-0.86,40.22c-5.04,15.35-14.31,27.61-27.84,36.52
	c-2.57,1.69-5.3,3.15-7.98,4.69c-0.49,0.28-1.06,0.41-1.81,0.47c6.42-21.19,12.63-42.35,16.18-64.2
	c-10.01,19.69-17.6,40.36-24.66,61.25C1459.44,102.91,1459.24,102.93,1459.05,102.94z"/>
<g>
	<path class="st1" d="M1336.95,97.05c5.34-14.3,7.95-29.92,4.83-44.98c-0.41-1.8-0.97-3.56-1.48-5.32l-2.07-5.08
		c-0.82-1.63-1.6-3.26-2.29-4.94c-4.02-8.71-8.47-16.76-13.12-25.38c0,0,0.68-0.73,0.68-0.73c13.48,5.98,23.38,19.34,25.39,33.98
		c1.27,8.23,1.6,16.67-0.06,24.87c-1.79,9.94-5.81,19.55-10.98,28.01C1337.84,97.49,1336.95,97.05,1336.95,97.05L1336.95,97.05z"/>
</g>
<g>
	<path class="st1" d="M1389.9,98.54c-7.53-10.22-12.57-22.78-12.44-35.62c0.08-3.76,0.56-7.71,1.3-11.39
		c0.81-3.74,1.88-7.64,3.76-10.97c4.77-8.2,12.53-14.74,21.75-17.31c0,0,0.69,0.86,0.69,0.86c-1.71,3.41-3.55,6.39-5.27,9.33
		c-2.9,4.88-5.51,9.82-8.28,14.72c-1.17,1.94-2.37,4.16-3.33,6.23c-1.58,3.62-2.49,7.62-2.86,11.56
		c-0.81,7.46,0.16,15.06,2.22,22.26c0.94,3.3,2.07,6.58,3.42,9.81C1390.86,98,1389.9,98.54,1389.9,98.54L1389.9,98.54z"/>
</g>
<g>
	<path class="st1" d="M609.43,110.9c4.18-10.14,6.83-21.1,5.64-32.07c-0.38-3.94-1.29-7.94-2.86-11.56
		c-0.97-2.06-2.16-4.29-3.33-6.23c-2.77-4.9-5.38-9.84-8.28-14.72c-1.72-2.94-3.56-5.92-5.27-9.33l0.69-0.86
		c11.89,3.42,22,13.35,24.84,25.46c1.17,4.58,1.87,9.5,1.97,14.22c0.04,5.55-0.88,11.25-2.56,16.53c-2.23,6.89-5.62,13.31-9.88,19.1
		C610.39,111.44,609.43,110.9,609.43,110.9L609.43,110.9z"/>
</g>
<g>
	<path class="st1" d="M651.9,118.63c7.72-18.54,11.7-38.87,7.67-58.64c-1.93-9.57-6.56-18.11-10.9-26.75
		c-4.68-9-10.21-17.02-15.78-25.67c0,0,0.67-0.74,0.67-0.74c14.13,7.32,25.94,20.52,30.71,35.96c3.06,10.38,4.31,21.28,3.51,32.02
		c-1.28,15.71-6.94,30.99-14.99,44.28C652.79,119.08,651.9,118.63,651.9,118.63L651.9,118.63z"/>
</g>
</svg>
