<?xml version="1.0" encoding="utf-8"?>
<!-- Generator: Adobe Illustrator 27.9.0, SVG Export Plug-In . SVG Version: 6.00 Build 0)  -->
<svg version="1.1" xmlns="http://www.w3.org/2000/svg" xmlns:xlink="http://www.w3.org/1999/xlink" x="0px" y="0px"
	 viewBox="0 0 6833.8 1080" style="enable-background:new 0 0 6833.8 1080;" xml:space="preserve">
<style type="text/css">
	.st0{fill:#93AF1C;}
	.st1{fill:#FFFFFF;}
	.st2{fill:none;stroke:#93AF1C;stroke-width:60;stroke-miterlimit:10;}
</style>
<g id="Layer_2">
</g>
<g id="Layer_1">
	<path class="st0" d="M6429.71,604.5c-3.82-5.98-8.09-11.72-11.38-17.97c-17.63-33.52-31.55-68.44-38.77-105.8
		c-9.79-50.7-9.47-101.19,2.25-151.63c20.55-88.46,67.91-159.3,140.88-212.7c18.7-13.69,39.81-24.23,60.33-35.25
		c11.95-6.42,13.08-5.38,20.63,5.12c20.84,28.99,36.9,60.44,48.42,94.21c23.45,68.79,26.37,138.61,7.85,208.73
		c-21.42,81.1-65.72,147.48-133.15,197.85c-12.82,9.57-26.52,17.96-39.92,26.75c-2.44,1.6-5.36,2.46-9.25,2.98
		c26.8-111.78,52.51-223.38,64.2-337.75c-45.85,105.14-78.85,214.61-109.07,325.03C6431.72,604.2,6430.71,604.35,6429.71,604.5z"/>
	<path class="st1" d="M6833.8,516.22c-998.65,303.2-1802.41,332.8-2347.92,305.1c-1306.64-66.35-2340.31-226.98-2939.68-258.67
		C668.11,516.22,213.55,711.71,0,788.16L0,1080h6833.8V516.22z"/>
	<path class="st2" d="M6833.8,515.37c-998.65,303.2-1802.41,332.8-2347.92,305.1C3179.23,754.12,2145.57,593.49,1546.19,561.8
		C668.11,515.37,213.55,710.86,0,787.31"/>
	<path class="st0" d="M6109.46,660.66c-3.57-4.85-7.52-9.48-10.66-14.59c-16.83-27.42-30.59-56.23-38.8-87.49
		c-11.15-42.42-13.71-85.23-6.62-128.64c12.45-76.13,48.61-138.83,107.45-188.19c15.08-12.65,32.38-22.77,49.15-33.27
		c9.76-6.11,10.78-5.3,17.77,3.18c19.29,23.4,34.67,49.15,46.33,77.13c23.74,56.98,30.14,115.99,18.38,176.47
		c-13.6,69.94-47.41,128.69-101.73,175.17c-10.33,8.83-21.47,16.71-32.33,24.91c-1.98,1.49-4.4,2.39-7.67,3.05
		c16.43-96.24,31.95-192.27,35.43-289.86c-32.95,91.68-54.77,186.32-74.17,281.6C6111.15,660.29,6110.3,660.48,6109.46,660.66z"/>
	<path class="st0" d="M313.57,654.41c-5.35-2.77-10.93-5.18-16.01-8.38c-27.22-17.16-52.29-36.92-73.48-61.33
		c-28.75-33.13-49.97-70.39-62.8-112.46c-22.48-73.79-17.76-146.02,13.2-216.3c7.94-18.02,18.98-34.74,29.38-51.57
		c6.06-9.8,7.33-9.52,17.34-5c27.65,12.46,52.83,28.76,75.65,48.7c46.48,40.62,78.31,90.73,94.49,150.17
		c18.72,68.75,14.36,136.39-13.83,202.09c-5.36,12.49-11.87,24.48-17.99,36.64c-1.11,2.21-2.89,4.09-5.53,6.12
		c-27.8-93.6-56.33-186.59-96.34-275.67c10.97,96.81,33.23,191.34,57.94,285.39C314.93,653.33,314.25,653.87,313.57,654.41z"/>
	<g>
		<path class="st0" d="M520.05,603.98c-12.61-29.15-19.75-61.33-18.74-93.32c0.48-16.28,1.37-33.26,8.3-48.37
			c6.72-15.09,16.48-29.05,30.12-38.67c0,0,1.63,1.15,1.63,1.15c-2.12,8-4.56,15.35-6.74,22.66c-4.45,14.4-7.83,28.48-12.26,42.78
			c-6.94,21.57-7.97,44.62-6.81,67.18c0.81,15.33,3.14,30.68,6.4,45.97C521.96,603.37,520.05,603.98,520.05,603.98L520.05,603.98z"
			/>
	</g>
	<g>
		<path class="st0" d="M638.83,587.25c16.17-37.94,24.58-79.73,16.21-120.34c-1.99-9.82-5.41-19.26-9.53-28.25
			c-5.1-11.17-10.76-22.39-16.8-33.16c-8.97-15.97-19.14-30.21-29.42-45.79c0,0,1.33-1.5,1.33-1.5
			c9.83,4.86,18.72,11.27,26.92,18.56c8.14,7.18,15.56,15.95,21.86,24.84c12.89,18.31,18.84,40.78,21.44,62.74
			c2.67,21.82,0.79,44.02-4.81,65.11c-5.57,20.91-14.36,40.62-25.42,58.7C640.61,588.16,638.83,587.25,638.83,587.25L638.83,587.25z
			"/>
	</g>
	<g>
		<path class="st0" d="M733.63,566.13c15.42-24.26,26.04-56.05,15.07-83.63c-3.02-8.18-8.42-15.27-13.94-21.96
			c-5.73-6.87-11.42-13.79-17.4-20.47c-7.76-8.75-15.55-16.52-23.21-25.96c0,0,1.02-1.72,1.02-1.72
			c23.4,4.67,47.8,20.19,59.45,41.41c9.63,17.71,14.44,38.71,10.51,58.64c-3.93,20.86-15.86,39.99-29.92,54.9
			C735.22,567.35,733.63,566.13,733.63,566.13L733.63,566.13z"/>
	</g>
	<g>
		<path class="st0" d="M2274,635.99c21.9-52.25,33.27-109.73,23.21-165.79c-2.44-13.69-6.49-27.01-11.67-39.78
			c-7.75-19.2-16.75-37.87-27.27-55.77c-10.68-18.59-22.97-35.46-35.56-53.23c0,0,1.37-1.45,1.37-1.45
			c36.99,23.79,67.1,61.35,80.16,103.95c21.8,71.84,7.63,148.48-28.44,212.95C2275.8,636.86,2274,635.99,2274,635.99L2274,635.99z"
			/>
	</g>
	<g>
		<path class="st0" d="M2396.76,627.39c21.12-33.88,35.06-76.38,21.83-115.55c-7.03-21.1-21.97-38.05-35.94-55.02
			c-8.25-9.81-17.2-18.91-26.14-28.2c-3.65-3.8-7.36-7.59-10.99-11.65c0,0,1.07-1.69,1.07-1.69c10.45,3.21,20.23,7.94,29.57,13.56
			c18.85,11.62,35.76,27.01,46.15,46.93c15.72,30.02,19.54,65.47,8.14,97.47c-7.05,20.67-18.52,39.11-32.07,55.31
			C2398.38,628.56,2396.76,627.39,2396.76,627.39L2396.76,627.39z"/>
	</g>
	<g>
		<path class="st0" d="M2542.33,642.41c-37.89-67.59-51.63-149.38-24.83-223.63c14.65-38.09,42.64-71.51,76.55-93.27
			c0,0,1.37,1.45,1.37,1.45c-12.59,17.77-24.88,34.64-35.56,53.23c-10.52,17.9-19.52,36.57-27.27,55.77
			c-5.18,12.77-9.24,26.09-11.67,39.78c-4.92,27.57-4.76,55.99-0.46,83.75c4.21,28.02,12.64,55.52,23.67,82.04L2542.33,642.41
			L2542.33,642.41z"/>
	</g>
	<g>
		<path class="st0" d="M5617.33,761.97c18.17-34.02,32-71.38,33.11-110.25c1.55-42.09-14.9-82.63-45.09-111.89
			c-13.93-14.13-29.29-26.83-45.21-38.66c-23-17.3-47.45-31.47-72.08-46.8c0,0,0.75-1.85,0.75-1.85
			c48.64,11.21,98.34,35.5,131.19,74c48.76,57.69,53.89,125.1,23.28,192.82c-6.82,15.24-15.06,29.78-24.24,43.67
			C5619.04,762.99,5617.33,761.97,5617.33,761.97L5617.33,761.97z"/>
	</g>
	<g>
		<path class="st0" d="M5719.68,739.89c-20.3-59.13-22.27-125.15,0.4-184.1c13.74-35.44,41.51-65.94,74.93-83.31
			c0,0,1.28,1.54,1.28,1.54c-13.03,17.2-25.62,33.37-36.69,51.54c-13.48,22.63-27.03,45.49-34.73,70.89
			c-6.81,22.82-10.05,46.7-10.35,70.6c-0.39,24.09,2.32,48.36,7.09,72.34L5719.68,739.89L5719.68,739.89z"/>
	</g>
	<g>
		<path class="st0" d="M5879.75,711.22c-46.59-61.92-71.16-141.13-54.53-218.29c9.42-39.7,32.69-76.58,63.39-102.68
			c0,0,1.56,1.26,1.56,1.26c-10.1,19.29-20.02,37.66-28.12,57.51c-8.03,19.15-14.45,38.85-19.56,58.92
			c-3.43,13.35-5.66,27.1-6.25,40.99c-1.19,27.98,2.77,56.12,10.75,83.06c7.92,27.2,19.95,53.33,34.44,78.14L5879.75,711.22
			L5879.75,711.22z"/>
	</g>
	<path class="st0" d="M2856.11,673.97c-3.99-2.6-8.19-4.94-11.92-7.86c-20.04-15.65-38.19-33.18-52.92-54.06
		c-19.98-28.33-33.71-59.32-40.46-93.42c-11.83-59.81-2.39-116.23,27.54-169.04c7.67-13.54,17.68-25.81,27.2-38.22
		c5.54-7.23,6.52-6.9,14.04-2.56c20.75,11.99,39.26,26.81,55.62,44.3c33.33,35.63,54.38,77.56,62.39,125.58
		c9.26,55.55,0.47,108.39-26.91,157.82c-5.2,9.4-11.28,18.31-17.05,27.38c-1.05,1.65-2.6,2.99-4.84,4.37
		c-14.44-75.81-29.49-151.2-53.89-224.42c0.94,76.99,10.95,153.1,22.92,229.01C2857.26,673.23,2856.68,673.6,2856.11,673.97z"/>
</g>
</svg>
