<?xml version="1.0" encoding="utf-8"?>
<!-- Generator: Adobe Illustrator 27.9.0, SVG Export Plug-In . SVG Version: 6.00 Build 0)  -->
<svg version="1.1" xmlns="http://www.w3.org/2000/svg" xmlns:xlink="http://www.w3.org/1999/xlink" x="0px" y="0px"
	 viewBox="0 0 1080 964.28" style="enable-background:new 0 0 1080 964.28;" xml:space="preserve">
<g id="Layer_2">
</g>
<g id="Layer_1">
	<path d="M774.58,271.21c-1.23-3.37-2.72-6.67-3.66-10.12c-5.04-18.49-8.1-37.25-7.58-56.49c0.71-26.11,6.38-51.01,17.68-74.65
		c19.82-41.44,50.96-71.26,92.83-89.66c10.73-4.72,22.31-7.61,33.65-10.82c6.6-1.87,7.05-1.23,9.63,4.78
		c7.13,16.6,11.62,33.89,13.62,51.82c4.06,36.54-2.13,71.34-18.94,103.95c-19.45,37.72-48.58,65.66-87.39,83.16
		c-7.38,3.33-15.06,5.97-22.64,8.85c-1.38,0.52-2.92,0.63-4.89,0.46c25.46-52.28,50.35-104.59,68.63-159.8
		c-34.14,46.92-62.4,97.38-89.4,148.61C775.61,271.28,775.09,271.24,774.58,271.21z"/>
	<polygon points="540,28.54 0,521.43 158.16,521.43 158.16,950.38 426.08,950.38 426.08,607.09 653.92,607.09 653.92,950.38 
		921.84,950.38 921.84,521.43 1080,521.43 	"/>
	<path d="M857.94,322.86c0.33-2.2,0.5-4.44,1.01-6.6c2.73-11.56,6.63-22.69,12.62-33.01c8.13-14.01,18.6-25.89,31.76-35.41
		c23.08-16.69,48.88-23.69,77.14-21.3c7.24,0.61,14.41,2.47,21.53,4.09c4.15,0.94,4.2,1.42,3.83,5.46
		c-1.04,11.15-3.72,21.9-7.95,32.26c-8.62,21.1-22.31,38.22-41.14,50.99c-21.77,14.77-45.92,21.35-72.25,19.37
		c-5-0.38-9.97-1.21-14.95-1.9c-0.91-0.12-1.78-0.52-2.8-1.2c29.37-20.92,58.43-42.03,84.76-66.67
		c-32.5,15.43-62.86,34.52-92.75,54.42C858.47,323.2,858.2,323.03,857.94,322.86z"/>
</g>
</svg>
