<?xml version="1.0" encoding="utf-8"?>
<!-- Generator: Adobe Illustrator 27.9.0, SVG Export Plug-In . SVG Version: 6.00 Build 0)  -->
<svg version="1.1" id="Layer_1" xmlns="http://www.w3.org/2000/svg" xmlns:xlink="http://www.w3.org/1999/xlink" x="0px" y="0px"
	 viewBox="0 0 1500 200" style="enable-background:new 0 0 1500 200;" xml:space="preserve">
<style type="text/css">
	.st0{fill:#93AF1C;}
</style>
<path class="st0" d="M1355.93,182.9c0.2-1.82,0.28-3.66,0.63-5.45c1.9-9.58,4.77-18.84,9.39-27.5
	c6.26-11.75,14.51-21.82,25.04-30.03c18.47-14.4,39.45-20.92,62.74-19.8c5.97,0.29,11.91,1.6,17.81,2.72
	c3.44,0.65,3.49,1.04,3.31,4.37c-0.52,9.19-2.4,18.1-5.57,26.74c-6.45,17.59-17.19,32.06-32.28,43.12
	c-17.45,12.78-37.09,18.91-58.78,18.07c-4.12-0.16-8.23-0.7-12.34-1.11c-0.75-0.07-1.47-0.38-2.34-0.9
	c23.5-18.06,46.75-36.27,67.64-57.3c-26.24,13.64-50.61,30.24-74.57,47.47C1356.39,183.16,1356.16,183.03,1355.93,182.9z"/>
<path class="st0" d="M1189.13,193.25c-0.78-1.12-1.65-2.18-2.33-3.35c-3.66-6.29-6.61-12.87-8.3-19.98
	c-2.29-9.65-2.64-19.33-0.81-29.11c3.22-17.14,11.72-31.11,25.29-41.96c3.48-2.78,7.44-4.97,11.28-7.26c2.24-1.33,2.46-1.14,4,0.81
	c4.24,5.39,7.57,11.29,10.06,17.68c5.06,13,6.19,26.37,3.21,39.98c-3.45,15.73-11.4,28.83-23.92,39.04
	c-2.38,1.94-4.94,3.66-7.44,5.46c-0.45,0.33-1.01,0.52-1.75,0.65c4.23-21.66,8.25-43.28,9.55-65.32
	c-7.94,20.54-13.37,41.81-18.26,63.24C1189.51,193.18,1189.32,193.21,1189.13,193.25z"/>
<path class="st0" d="M176.1,196.71c-1.79-0.37-3.62-0.62-5.37-1.14c-9.36-2.79-18.31-6.52-26.5-11.92
	c-11.11-7.33-20.37-16.49-27.55-27.74c-12.61-19.73-17.13-41.23-13.83-64.31c0.85-5.92,2.71-11.71,4.37-17.48
	c0.97-3.36,1.36-3.38,4.66-2.88c9.1,1.38,17.8,4.09,26.1,8.05c16.91,8.07,30.31,20.12,39.9,36.17
	c11.09,18.57,15.35,38.7,12.48,60.21c-0.55,4.09-1.47,8.13-2.26,12.18c-0.14,0.74-0.51,1.43-1.12,2.24
	c-15.78-25.09-31.72-49.94-50.7-72.71c11.12,27.4,25.36,53.22,40.27,78.7C176.41,196.29,176.26,196.5,176.1,196.71z"/>
<path class="st0" d="M106.54,192.35c-1.28,0.47-2.53,1.04-3.84,1.4c-7.01,1.94-14.13,3.12-21.43,2.95
	c-9.91-0.24-19.37-2.36-28.35-6.62c-15.76-7.47-27.11-19.25-34.14-35.13c-1.8-4.07-2.92-8.46-4.15-12.76
	c-0.72-2.5-0.48-2.67,1.8-3.66c6.29-2.73,12.85-4.45,19.65-5.23c13.86-1.59,27.08,0.72,39.48,7.06
	c14.34,7.33,24.98,18.36,31.67,33.07c1.27,2.8,2.29,5.71,3.39,8.58c0.2,0.52,0.24,1.11,0.18,1.86
	c-19.87-9.6-39.76-18.98-60.74-25.85c17.85,12.9,37.04,23.57,56.52,33.75C106.56,191.96,106.55,192.15,106.54,192.35z"/>
<path class="st0" d="M1295.81,192.42c-0.46-0.98-0.99-1.93-1.37-2.94c-2.01-5.41-3.43-10.96-3.79-16.75
	c-0.49-7.85,0.55-15.48,3.31-22.87c4.84-12.97,13.38-22.74,25.45-29.39c3.09-1.7,6.49-2.88,9.81-4.15c1.93-0.74,2.08-0.56,3.02,1.18
	c2.58,4.79,4.39,9.86,5.47,15.18c2.2,10.85,1.27,21.46-2.9,31.7c-4.82,11.84-12.82,21-23.99,27.29c-2.12,1.2-4.36,2.2-6.56,3.26
	c-0.4,0.19-0.86,0.27-1.46,0.27c6.24-16.37,12.31-32.73,16.31-49.78c-8.99,14.99-16.12,30.89-22.84,46.98
	C1296.12,192.42,1295.96,192.42,1295.81,192.42z"/>
<path class="st0" d="M250.63,196.71c-1.31-0.78-2.68-1.47-3.92-2.35c-6.62-4.73-12.66-10.09-17.65-16.57
	c-6.77-8.79-11.58-18.51-14.19-29.32c-4.59-18.96-2.33-37.12,6.52-54.41c2.27-4.43,5.3-8.49,8.18-12.59
	c1.67-2.38,1.99-2.29,4.45-1.01c6.8,3.55,12.91,8.04,18.38,13.41c11.14,10.94,18.43,24.06,21.64,39.3
	c3.71,17.63,1.61,34.64-6.47,50.81c-1.54,3.07-3.36,6.01-5.08,8.98c-0.31,0.54-0.79,0.99-1.49,1.46
	c-5.64-24.04-11.47-47.94-20.25-71.02c1.34,24.6,5.57,48.79,10.42,72.9C250.98,196.46,250.8,196.58,250.63,196.71z"/>
</svg>
